<svg width="48" height="48" viewBox="0 0 48 48" fill="none" xmlns="http://www.w3.org/2000/svg">
<path d="M42.42 31.78C41.1476 34.789 39.1576 37.4404 36.6238 39.5026C34.0899 41.5648 31.0895 42.9749 27.8849 43.6096C24.6802 44.2443 21.3688 44.0843 18.2403 43.1436C15.1117 42.2029 12.2612 40.5101 9.93804 38.2133C7.61483 35.9165 5.88963 33.0855 4.91327 29.9679C3.93691 26.8503 3.73912 23.541 4.33719 20.3293C4.93527 17.1176 6.31099 14.1013 8.34409 11.5441C10.3772 8.98686 13.0058 6.96664 16 5.66M44 24C44 21.3736 43.4827 18.7728 42.4776 16.3463C41.4725 13.9198 39.9993 11.715 38.1421 9.85786C36.285 8.00069 34.0802 6.5275 31.6537 5.52241C29.2272 4.51732 26.6264 4 24 4V24H44Z" stroke="#1E1E1E" stroke-width="4" stroke-linecap="round" stroke-linejoin="round"/>
</svg>
