<svg width="50" height="50" viewBox="0 0 50 50" fill="none" xmlns="http://www.w3.org/2000/svg">
<path d="M24.9997 24.9997C22.708 24.9997 20.7462 24.1837 19.1143 22.5518C17.4823 20.9198 16.6663 18.958 16.6663 16.6663C16.6663 14.3747 17.4823 12.4129 19.1143 10.7809C20.7462 9.14898 22.708 8.33301 24.9997 8.33301C27.2913 8.33301 29.2531 9.14898 30.8851 10.7809C32.517 12.4129 33.333 14.3747 33.333 16.6663C33.333 18.958 32.517 20.9198 30.8851 22.5518C29.2531 24.1837 27.2913 24.9997 24.9997 24.9997ZM8.33301 41.6663V35.833C8.33301 34.6525 8.63683 33.5674 9.24447 32.5778C9.85211 31.5882 10.6594 30.833 11.6663 30.3122C13.8191 29.2358 16.0066 28.4285 18.2288 27.8903C20.4511 27.3521 22.708 27.083 24.9997 27.083C27.2913 27.083 29.5483 27.3521 31.7705 27.8903C33.9927 28.4285 36.1802 29.2358 38.333 30.3122C39.34 30.833 40.1472 31.5882 40.7549 32.5778C41.3625 33.5674 41.6663 34.6525 41.6663 35.833V41.6663H8.33301ZM12.4997 37.4997H37.4997V35.833C37.4997 35.4511 37.4042 35.1038 37.2132 34.7913C37.0222 34.4788 36.7705 34.2358 36.458 34.0622C34.583 33.1247 32.6906 32.4216 30.7809 31.9528C28.8712 31.4841 26.9441 31.2497 24.9997 31.2497C23.0552 31.2497 21.1281 31.4841 19.2184 31.9528C17.3087 32.4216 15.4163 33.1247 13.5413 34.0622C13.2288 34.2358 12.9771 34.4788 12.7861 34.7913C12.5952 35.1038 12.4997 35.4511 12.4997 35.833V37.4997ZM24.9997 20.833C26.1455 20.833 27.1264 20.425 27.9424 19.609C28.7584 18.7931 29.1663 17.8122 29.1663 16.6663C29.1663 15.5205 28.7584 14.5396 27.9424 13.7236C27.1264 12.9077 26.1455 12.4997 24.9997 12.4997C23.8538 12.4997 22.8729 12.9077 22.057 13.7236C21.241 14.5396 20.833 15.5205 20.833 16.6663C20.833 17.8122 21.241 18.7931 22.057 19.609C22.8729 20.425 23.8538 20.833 24.9997 20.833Z" fill="#1D1B20"/>
</svg>
