<svg width="44" height="44" viewBox="0 0 44 44" fill="none" xmlns="http://www.w3.org/2000/svg">
<path d="M38 22V42H6V22M22 42V12M22 12H13C11.6739 12 10.4021 11.4732 9.46447 10.5355C8.52678 9.59785 8 8.32608 8 7C8 5.67392 8.52678 4.40215 9.46447 3.46447C10.4021 2.52678 11.6739 2 13 2C20 2 22 12 22 12ZM22 12H31C32.3261 12 33.5979 11.4732 34.5355 10.5355C35.4732 9.59785 36 8.32608 36 7C36 5.67392 35.4732 4.40215 34.5355 3.46447C33.5979 2.52678 32.3261 2 31 2C24 2 22 12 22 12ZM2 12H42V22H2V12Z" stroke="#1E1E1E" stroke-width="4" stroke-linecap="round" stroke-linejoin="round"/>
</svg>
