<svg width="32" height="32" viewBox="0 0 32 32" fill="none" xmlns="http://www.w3.org/2000/svg">
<g clip-path="url(#clip0_502_194)">
<path d="M1.33301 1.33331H6.66634L10.2397 19.1866C10.3616 19.8005 10.6956 20.3519 11.1831 20.7444C11.6706 21.1368 12.2806 21.3453 12.9063 21.3333H25.8663C26.4921 21.3453 27.1021 21.1368 27.5896 20.7444C28.0771 20.3519 28.4111 19.8005 28.533 19.1866L30.6663 7.99998H7.99967M13.333 28C13.333 28.7364 12.7361 29.3333 11.9997 29.3333C11.2633 29.3333 10.6663 28.7364 10.6663 28C10.6663 27.2636 11.2633 26.6666 11.9997 26.6666C12.7361 26.6666 13.333 27.2636 13.333 28ZM27.9997 28C27.9997 28.7364 27.4027 29.3333 26.6663 29.3333C25.93 29.3333 25.333 28.7364 25.333 28C25.333 27.2636 25.93 26.6666 26.6663 26.6666C27.4027 26.6666 27.9997 27.2636 27.9997 28Z" stroke="#1E1E1E" stroke-width="2.8" stroke-linecap="round" stroke-linejoin="round"/>
</g>
<defs>
<clipPath id="clip0_502_194">
<rect width="32" height="32" fill="white"/>
</clipPath>
</defs>
</svg>
