<svg width="17" height="15" viewBox="0 0 17 15" fill="none" xmlns="http://www.w3.org/2000/svg">
<path d="M16.1382 0.744551C16.042 0.522294 15.8826 0.33322 15.6798 0.200844C15.477 0.0684681 15.2397 -0.00136842 14.9975 2.03161e-05H1.24754C1.00561 0.000497003 0.769017 0.0711689 0.566464 0.203463C0.36391 0.335757 0.204099 0.523988 0.106418 0.74532C0.00873761 0.966653 -0.0226154 1.21158 0.0161627 1.45038C0.0549408 1.68918 0.162184 1.91159 0.324882 2.09065L0.331132 2.09768L5.62254 7.74768V13.75C5.62249 13.9763 5.68383 14.1983 5.80003 14.3924C5.91624 14.5865 6.08294 14.7454 6.28237 14.8522C6.4818 14.959 6.70648 15.0097 6.93245 14.9989C7.15843 14.988 7.37722 14.9161 7.56551 14.7906L10.0655 13.1235C10.2369 13.0093 10.3774 12.8546 10.4746 12.673C10.5718 12.4915 10.6226 12.2887 10.6225 12.0828V7.74768L15.9147 2.09768L15.921 2.09065C16.0854 1.91241 16.1937 1.6897 16.2323 1.45031C16.2709 1.21092 16.2382 0.965451 16.1382 0.744551ZM9.54285 7.07658C9.43473 7.19121 9.3739 7.34245 9.37254 7.50002V12.0828L6.87254 13.75V7.50002C6.87259 7.34131 6.81225 7.18853 6.70379 7.07268L1.24754 1.25002H14.9975L9.54285 7.07658Z" fill="black"/>
</svg>
