<svg width="392" height="392" viewBox="0 0 392 392" fill="none" xmlns="http://www.w3.org/2000/svg">
<rect width="392" height="392" fill="#E0ECF7"/>
<path d="M251 141H141C138.348 141 135.804 142.054 133.929 143.929C132.054 145.804 131 148.348 131 151V241C131 243.652 132.054 246.196 133.929 248.071C135.804 249.946 138.348 251 141 251H251C253.652 251 256.196 249.946 258.071 248.071C259.946 246.196 261 243.652 261 241V151C261 148.348 259.946 145.804 258.071 143.929C256.196 142.054 253.652 141 251 141ZM251 151V215.219L234.706 198.931C233.778 198.002 232.675 197.266 231.462 196.763C230.248 196.26 228.948 196.002 227.634 196.002C226.321 196.002 225.02 196.26 223.807 196.763C222.594 197.266 221.491 198.002 220.562 198.931L208.062 211.431L180.562 183.931C178.687 182.057 176.145 181.005 173.494 181.005C170.843 181.005 168.3 182.057 166.425 183.931L141 209.356V151H251ZM141 223.5L173.5 191L223.5 241H141V223.5ZM251 241H237.644L215.144 218.5L227.644 206L251 229.363V241ZM206 178.5C206 177.017 206.44 175.567 207.264 174.333C208.088 173.1 209.259 172.139 210.63 171.571C212 171.003 213.508 170.855 214.963 171.144C216.418 171.433 217.754 172.148 218.803 173.197C219.852 174.246 220.566 175.582 220.856 177.037C221.145 178.492 220.997 180 220.429 181.37C219.861 182.741 218.9 183.912 217.667 184.736C216.433 185.56 214.983 186 213.5 186C211.511 186 209.603 185.21 208.197 183.803C206.79 182.397 206 180.489 206 178.5Z" fill="white"/>
</svg>
